<?xml version="1.0" encoding="utf-8"?>
<!-- Generator: Adobe Illustrator 15.0.0, SVG Export Plug-In . SVG Version: 6.00 Build 0)  -->
<!DOCTYPE svg PUBLIC "-//W3C//DTD SVG 1.1//EN" "http://www.w3.org/Graphics/SVG/1.1/DTD/svg11.dtd">
<svg version="1.1" id="Слой_1" xmlns="http://www.w3.org/2000/svg" xmlns:xlink="http://www.w3.org/1999/xlink" x="0px" y="0px"
	 width="225px" height="60px" viewBox="0 0 225 60" enable-background="new 0 0 225 60" xml:space="preserve">
<path fill="#B8A66C" d="M43.626,37.907l-0.782-2.162h-1.061l-0.794-2.004l-1.893-0.42l-0.793-1.319v-8.225l-0.313-0.209
	c-0.055-0.054-0.165-0.109-0.165-0.109l-0.682,0.318v0.21l-0.583,0.163c0,0-0.104-0.163-0.104-0.21v-0.792l-0.838-0.372v1.109
	l-0.741-0.265v-1.162c-0.108-0.05-0.163-0.099-0.212-0.099c-0.159-0.109-0.371-0.161-0.524-0.161v1.154l-1.009-0.26v-1.265
	l-0.791-0.213v1.215l-1.104-0.372v-1.42c-0.208-0.162-1.424-1.162-1.526-1.215c-0.375-0.102-0.794-0.102-1.212,0.103
	c-0.265-0.579-0.535-0.899-1.056-1.42c-0.522-0.521-1.955-0.317-1.955-0.317l0.058-1.265c0,0-1.09-1.507-1.323-1.737
	c-0.102-0.103-0.356-0.093-0.638-0.045c-0.024-0.502-0.077-1.424-0.077-1.424l0.783-0.064l-0.055-0.371l-0.728-0.012l-0.017-0.724
	l-0.359,0.104l-0.008,0.631l-0.732,0.059v0.394l0.761-0.049c0,0,0.02,1.068,0.029,1.546c-0.213,0.057-0.41,0.116-0.536,0.163
	c-0.371,0.138-0.48,0.321-0.631,0.58c0,0-0.222-0.137-0.474-0.062c-0.404,0.125-0.321,0.644-0.321,0.644l0.208,1.633
	c0,0-0.667-0.417-1.208-0.266c-0.54,0.154-0.792,0.688-0.901,0.949c0,0-0.104-0.162-0.684-0.03
	c-0.808,0.188-1.055,1.401-1.055,1.456c-0.044,0.055-0.044,0.156-0.102,0.156c-0.423,0.162-0.975,0.652-1.479,1.43
	c-0.504,0.773-0.47,1.893-0.47,1.893l-1.796-0.368l-0.9,0.368l-1.312,1.688c-0.212,0.264-0.372,0.583-0.476,0.896
	c-0.055,0.103-0.107,0.319-0.159,0.634c-0.264,0.842-0.212,2.898-0.212,2.898l0.105,0.899l0.106,9.544l0.896-13.289l0.788-0.895
	l0.058,1.684c-0.107,0.633-0.107,5.168-0.107,5.168l-0.212,0.475v6.857l1.002-6.014l0.053-1.634
	c0.055-0.949,0.105-2.002,0.214-3.165l0.261-0.162l0.262,0.531l-0.104,2.478c0,0-0.158,3.267-0.315,3.581l1.212,5.331l0.158-5.484
	l0.209-3.109l0.104-0.523l0.209-0.164c0,0,0.052,0.052,0.16,0.164c0.055,0.047,0.107,0.157,0.162,0.205
	C15.953,32.531,16,32.689,16,32.846v0.79c0,0.897,0.16,3.165,0.426,6.909l0.631-4.428c0-0.318,0.052-0.633,0.157-0.95l0.266,0.208
	l0.364-0.789l0.268,0.109v0.577l-0.159,5.587c0,0,0.159,1.268,0.104,1.952h1.211c1.318,0.947,3.126,2.457,5.914,3.636
	c2.163,0.914,3.716,0.68,5.423,0V26.521l5.542,1.473v16.716c1.733-1.003,3.472-1.478,5.107-1.42c1.266,0,2.005,0.054,2.214,0.054
	c0.159,0,0.316,0.05,0.478,0.098v-2.424c-0.11-0.575-0.162-1.107-0.217-1.581C43.729,39.015,43.626,37.907,43.626,37.907z
	 M18.636,24.515l-0.314-0.053c-0.479-0.106-1.06-0.312-1.738-0.475c-0.055-0.74,0.047-1.419,0.313-2.055
	c0.053-0.316,0.583-0.842,0.583-0.842l0.209,0.948l0.155,2.213c0.056-0.048,0.109-0.102,0.109-0.21
	c0.104-2.426,0.263-3.849,0.523-4.319c0.053-0.056,0.053-0.164,0.11-0.217c0.209-0.052,0.314,0.053,0.424,0.318l0.103,3.69
	l0.155,1.265C18.9,24.676,18.74,24.566,18.636,24.515z M21.274,24.15l-0.161,0.102v1.477h-1.582l-0.102-1.214l0.47-5.221
	l0.843-0.682l0.531,5.273V24.15z M22.803,16.237l0.629,0.107l0.264-0.158v1.428l-0.843-0.689c-0.102-0.159-0.156-0.315-0.258-0.527
	L22.803,16.237z M21.748,16.557l0.268-0.212l0.204,1.579v0.217l-0.26,0.262v-0.37L21.748,16.557z M27.974,33.321
	c-0.427-0.104-0.796-0.215-1.166-0.263c-0.155,0-0.682-0.527-0.682-0.527l-0.795-1.738l-1.84-0.741l-0.264-0.689l-0.317-0.575
	l-0.158-0.846l0.052-1.421l0.106-0.682l-0.477-0.584l-0.417-0.949v-0.42l0.944-0.532l0.163,1.108l0.52-0.258c0-0.264,0-1.11,0-1.11
	c0-0.106,0.374-0.525,0.531-0.635l0.207,1.214c0.106,0,0.476-0.264,0.476-0.264c0.051-0.478,0.108-1,0.16-1.477l0.632-0.42
	l0.107,1.37l0.525-0.314v-1.529l1.162-0.584l0.366-0.156l0.266,13.442L27.974,33.321z M30.188,21.776l-0.742,0.21V21.14l0.787-0.263
	L30.188,21.776z M49.201,25.729c-1.322-2.16-2.11-3.689-2.431-4.746c-0.522-1.581-0.473-3.318,0.058-5.167
	c0.475-1.473,1.051-2.792,1.849-3.956l2.106-3.262L50.2,8.381c-0.895-0.363-1.585-0.946-2.109-1.738
	c-0.525-0.791-0.789-1.636-0.789-2.635V3.375l-3.904,1c-1.42,0.369-2.846,0.53-4.324,0.53c-3.582,0-6.846-1.058-9.854-3.112
	L26.578,0l-2.527,1.793c-3.058,2.055-6.327,3.112-9.915,3.112c-1.424,0-2.846-0.161-4.266-0.53l-3.904-1v0.633
	C5.914,4.959,5.65,5.852,5.126,6.643C4.65,7.435,3.914,8.018,3.068,8.381l-0.58,0.217l2.106,3.262
	c0.737,1.164,1.371,2.483,1.797,3.956c0.574,1.849,0.574,3.586,0.105,5.167c-0.317,1.057-1.166,2.639-2.479,4.746
	c-1.634,2.586-2.746,4.692-3.22,6.325c-0.944,2.794-1.054,5.697-0.313,8.753c0.948,3.902,3.113,6.803,6.538,8.699
	c1.896,1.056,4.902,1.955,8.91,2.688l2.217,0.424c1.105,0.266,2.264,0.848,3.535,1.794c0.837,0.686,1.525,1.369,2.052,1.949
	L26.636,60l2.899-3.64c0.474-0.631,1.213-1.264,2.056-1.949c1.267-0.946,2.423-1.528,3.473-1.794
	c0.374-0.049,1.112-0.207,2.214-0.424c4.013-0.732,6.966-1.632,8.969-2.688c3.376-1.896,5.59-4.797,6.487-8.699
	c0.733-3.056,0.631-5.959-0.262-8.753C51.942,30.369,50.833,28.261,49.201,25.729z M48.615,39.806
	c-0.626,2.796-2.206,4.799-4.744,6.115c-1.473,0.796-3.898,1.479-7.324,2.107l-2.371,0.478c-2.695,0.579-5.223,2.108-7.541,4.64
	c-2.376-2.531-4.849-4.061-7.593-4.64l-2.316-0.478c-3.435-0.629-5.856-1.312-7.333-2.107c-2.53-1.316-4.113-3.319-4.745-6.115
	c-0.583-2.271-0.53-4.481,0.208-6.536c0.372-1.321,1.322-3.06,2.742-5.328c1.528-2.425,2.534-4.32,2.956-5.798
	c0.734-2.374,0.685-4.901-0.111-7.538c-0.527-1.796-1.262-3.326-2.053-4.643c0.421-0.366,0.736-0.842,0.897-1.365h0.052
	c1.586,0.366,3.161,0.581,4.795,0.581c4.486,0,8.546-1.325,12.338-3.906l0.162-0.105l0.159,0.105
	c3.739,2.581,7.851,3.906,12.279,3.906c1.585,0,3.214-0.215,4.854-0.581c0.206,0.523,0.469,0.999,0.896,1.365
	c-0.848,1.316-1.528,2.847-2.058,4.643c-0.789,2.637-0.789,5.164-0.055,7.538c0.423,1.478,1.37,3.373,2.953,5.798
	c1.426,2.269,2.324,4.061,2.748,5.328C49.091,35.324,49.201,37.535,48.615,39.806z M98.244,31.868l3.37-0.406
	c-0.693-3.51-1.039-6.775-1.039-9.796v-4.832l-3.206,0.322v2.618c-0.446,0.949-0.953,1.866-1.527,2.749
	c-0.597,0.928-1.203,1.854-1.821,2.781c-0.585,0.926-1.089,1.886-1.513,2.877c-0.409,1.013-0.665,2.106-0.763,3.28
	c1.063,0.271,2.017,0.406,2.863,0.406c0.133,0,0.254-0.038,0.363-0.111c0.089-0.066,0.133-0.142,0.133-0.229
	c0-0.312-0.046-0.651-0.137-1.019c-0.117-0.378-0.173-0.733-0.173-1.069c0.022-1.369,0.305-2.75,0.846-4.144
	c0.519-1.37,1.095-2.676,1.729-3.915C97.421,24.833,97.713,28.331,98.244,31.868z M72,31.413c0.512,0.289,1.046,0.444,1.601,0.466
	c2.249-0.051,3.922-0.704,5.022-1.958c1.046-1.237,1.567-2.663,1.567-4.27h-0.05c-0.044-2.757-1.441-4.954-4.192-6.591
	c0.917-0.756,1.663-1.546,2.237-2.375c0.553-0.819,0.84-1.627,0.861-2.424c-0.021-1.411-0.542-2.58-1.563-3.507
	c-1.022-0.925-2.335-1.4-3.938-1.421c-0.938,0-1.857,0.107-2.751,0.32c-0.939,0.247-1.794,0.661-2.565,1.249l-0.826-1.179
	c-0.13-0.161-0.306-0.242-0.532-0.242c-0.214,0-0.323,0.084-0.323,0.251c0,0.172,0.031,0.395,0.098,0.663
	c0.043,0.259,0.097,0.555,0.161,0.891c0.064,0.302,0.13,0.607,0.194,0.921c0.021,0.334,0.032,0.657,0.032,0.972
	c0,0.366-0.043,0.759-0.13,1.181c-0.108,0.443-0.161,0.799-0.161,1.067c0,0.303,0.189,0.442,0.564,0.421
	c0.305-0.022,0.497-0.183,0.583-0.485c0.898-3.275,2.33-4.893,4.297-4.851c0.961,0.021,1.724,0.443,2.289,1.264
	c0.554,0.811,0.84,1.834,0.861,3.075c0,0.571-0.02,1.171-0.062,1.796c-0.083,0.637-0.267,1.177-0.549,1.62
	c-1.474-0.727-2.709-1.089-3.701-1.089c-0.877,0.021-1.583,0.274-2.117,0.761c-0.555,0.485-0.831,1.083-0.831,1.796
	s0.256,1.3,0.77,1.763c0.467,0.509,1.113,0.762,1.927,0.762c0.533,0,1.135-0.188,1.804-0.567c0.639-0.337,1.271-0.793,1.898-1.366
	c0.68,0.593,1.161,1.364,1.442,2.31c0.251,0.971,0.376,1.95,0.376,2.941c0,0.624-0.032,1.223-0.094,1.792
	c-0.083,0.594-0.256,1.133-0.517,1.616c-0.211,0.464-0.539,0.83-0.988,1.1c-0.471,0.312-1.072,0.47-1.803,0.47
	c-0.597,0-1.131-0.224-1.601-0.667c-0.491-0.42-0.973-0.906-1.443-1.456c-0.47-0.562-0.978-1.052-1.52-1.473
	c-0.557-0.411-1.219-0.627-1.993-0.648c-0.786,0.021-1.448,0.328-1.991,0.923c-0.555,0.616-0.833,1.387-0.833,2.315
	c0,0.421,0.174,0.862,0.518,1.329c0.305,0.461,0.733,0.798,1.288,1.001c0.125-0.817,0.371-1.477,0.736-1.982
	c0.389-0.483,0.921-0.724,1.603-0.724c0.429,0.021,0.866,0.15,1.317,0.385c0.45,0.271,0.932,0.582,1.442,0.937
	C70.939,30.815,71.466,31.123,72,31.413z M72.704,20.392c-0.449,0.291-0.931,0.438-1.444,0.438
	c-0.752-0.022-1.119-0.412-1.098-1.171c0-0.313,0.12-0.567,0.359-0.764c0.189-0.227,0.436-0.34,0.738-0.34
	c0.856,0,1.705,0.357,2.542,1.072C73.499,19.865,73.133,20.119,72.704,20.392z M91.655,21.552c-0.407-1.002-0.907-1.858-1.497-2.561
	c-1.324-1.417-2.462-2.136-3.42-2.157c-0.728,0.043-1.765,0.784-3.105,2.221c-0.626,0.691-1.163,1.454-1.609,2.285
	c-0.47,0.865-0.702,1.752-0.702,2.661c0,0.951,0.193,1.881,0.579,2.788c0.341,0.93,0.769,1.771,1.278,2.528
	c0.531,0.746,1.09,1.341,1.672,1.784c0.551,0.463,1.05,0.707,1.498,0.729c0.552-0.021,1.17-0.215,1.857-0.582
	c0.656-0.38,1.296-0.882,1.921-1.51c0.613-0.634,1.121-1.364,1.528-2.186c0.406-0.789,0.609-1.637,0.609-2.542
	C92.265,23.7,92.062,22.549,91.655,21.552z M89.51,28.173c-0.284,0.336-0.61,0.506-0.978,0.506c-0.516,0-1.052-0.267-1.609-0.799
	c-0.61-0.49-1.162-1.116-1.656-1.878c-0.493-0.758-0.897-1.514-1.214-2.266c-0.347-0.762-0.521-1.419-0.521-1.974
	c0-0.467,0.126-0.88,0.379-1.239c0.242-0.358,0.536-0.538,0.883-0.538c0.578,0,1.177,0.245,1.799,0.734
	c0.59,0.478,1.129,1.093,1.624,1.841c0.494,0.764,0.889,1.519,1.182,2.269c0.307,0.784,0.458,1.485,0.458,2.105
	C89.856,27.444,89.741,27.856,89.51,28.173z M131.692,23.496c0.082-2.961,0.22-5.073,0.409-6.338l-3.093-0.324
	c-0.093,0.28-0.19,1.042-0.294,2.285c-0.146,1.265-0.221,2.573-0.221,3.924v8.461h3.198V23.496z M171.356,16.664
	c-0.08-0.12-0.178-0.212-0.289-0.277c-0.124-0.063-0.277-0.097-0.462-0.097c-0.463,0-0.95,0.254-1.459,0.762
	c-0.497,0.549-0.966,1.279-1.408,2.187c-0.875,1.876-1.35,4.122-1.427,6.733c0.092,3.25,0.307,6.033,0.644,8.357
	c0.378,2.341,0.576,5.217,0.598,8.63c-0.021,0.928-0.052,1.921-0.097,2.978c-0.174,0.28-0.331,0.533-0.469,0.762
	c-0.173,0.216-0.259,0.49-0.259,0.825c-0.021,0.107,0.052,0.328,0.227,0.664c0.158,0.129,0.355,0.174,0.594,0.129
	c0.222-0.042,0.378-0.129,0.464-0.26c0.651-1.22,1.091-2.644,1.316-4.275c0.191-1.643,0.289-3.225,0.289-4.745
	c-0.022-2.637-0.214-5.227-0.58-7.765c0.137-0.228,0.324-0.383,0.557-0.471c0.223-0.063,0.46-0.106,0.715-0.129
	c0.265-0.019,0.515-0.076,0.75-0.162c0.242-0.073,0.426-0.221,0.555-0.437c0.413-2.026,0.617-4.05,0.617-6.065
	c0.022-1.477-0.069-2.912-0.275-4.304L171.356,16.664z M170.605,24.445c0,0.554-0.011,1-0.034,1.336
	c-0.081,0.302-0.154,0.558-0.222,0.765c-0.157,0.279-0.369,0.547-0.631,0.797l-1.106,0.098c-0.021-1.217-0.021-2.459,0-3.729
	c0-0.67,0.075-1.283,0.226-1.838c0.147-0.553,0.432-1.03,0.849-1.433c0.237,0.044,0.426,0.267,0.562,0.666
	c0.135,0.382,0.215,0.816,0.237,1.303c0.08,0.491,0.12,0.924,0.12,1.302V24.445z M153.695,31.065c0-0.108-0.064-0.208-0.188-0.293
	l-1.445-0.498v-6.889c0-0.323,0.053-0.608,0.156-0.857c0.065-0.237,0.147-0.382,0.254-0.436v-0.356c-1.258,0-2.489-0.364-3.694-1.1
	c-1.196-0.678-2.271-1.596-3.227-2.748l0.862-1.682c0.219,0.485,0.657,1.032,1.314,1.646c0.348,0.29,0.714,0.521,1.1,0.693
	c0.388,0.226,0.779,0.338,1.178,0.338c0.993-0.022,1.745-0.527,2.256-1.52c0.492-0.969,0.738-1.998,0.738-3.086
	c-0.062-3.328-1.909-4.982-5.54-4.961c-1.587,0.021-2.912,0.486-3.977,1.396c-1.094,0.908-1.65,2.049-1.673,3.423v16.159
	l-1.262,0.427c-0.168,0.064-0.254,0.18-0.254,0.348c0,0.244,0.106,0.378,0.313,0.399h12.697
	C153.545,31.47,153.674,31.333,153.695,31.065z M145.551,14.115c-0.021-0.801,0.082-1.602,0.315-2.402
	c0.242-0.767,0.763-1.174,1.566-1.217c0.831,0.043,1.444,0.477,1.835,1.298c0.39,0.79,0.583,1.563,0.583,2.319
	c0,0.615-0.075,1.258-0.221,1.929c-0.088,0.303-0.219,0.557-0.398,0.762c-0.149,0.238-0.376,0.358-0.684,0.358
	c-0.372-0.023-0.763-0.294-1.177-0.817c-0.399-0.501-0.692-0.969-0.872-1.408h-0.064l-0.884,1.4V14.115z M148.313,30.633h-2.762
	V19.078c0.869,0.949,1.79,1.713,2.762,2.286V30.633z M123.959,18.11c0.189,0.064,0.302,0.174,0.346,0.324l1.097,3.624h0.301
	c0.207-0.655,0.395-1.246,0.563-1.771c0.177-0.525,0.469-1.165,0.879-1.917c0.229-0.354,0.365-0.584,0.406-0.691
	c-0.02-0.313-0.105-0.479-0.254-0.5H114.05v7.011c0,0.226,0.101,0.339,0.308,0.339c0.909-0.042,1.663-0.19,2.259-0.44l0.374-5.62
	c0.064-0.303,0.31-0.455,0.731-0.455h1.3v13.796l3.207-0.324V18.013h1.055C123.515,18.013,123.739,18.045,123.959,18.11z
	 M182.787,18.991c-1.321-1.417-2.461-2.136-3.419-2.157c-0.727,0.043-1.761,0.784-3.104,2.221c-0.627,0.691-1.162,1.454-1.609,2.285
	c-0.469,0.865-0.699,1.752-0.699,2.661c0,0.951,0.19,1.881,0.574,2.788c0.346,0.93,0.771,1.771,1.28,2.528
	c0.531,0.746,1.088,1.341,1.67,1.784c0.553,0.463,1.055,0.707,1.501,0.729c0.553-0.021,1.17-0.215,1.858-0.582
	c0.654-0.38,1.294-0.882,1.919-1.51c0.613-0.634,1.123-1.364,1.528-2.186c0.407-0.789,0.609-1.637,0.609-2.542
	c0-1.311-0.202-2.462-0.609-3.459C183.881,20.55,183.382,19.693,182.787,18.991z M182.14,28.173
	c-0.284,0.336-0.607,0.506-0.977,0.506c-0.515,0-1.052-0.267-1.607-0.799c-0.613-0.49-1.163-1.116-1.657-1.878
	c-0.495-0.758-0.898-1.514-1.213-2.266c-0.347-0.762-0.521-1.419-0.521-1.974c0-0.467,0.125-0.88,0.379-1.239
	c0.242-0.358,0.536-0.538,0.883-0.538c0.577,0,1.178,0.245,1.798,0.734c0.588,0.478,1.131,1.093,1.624,1.841
	c0.494,0.764,0.89,1.519,1.184,2.269c0.303,0.784,0.457,1.485,0.457,2.105C182.488,27.444,182.372,27.856,182.14,28.173z
	 M162.67,18.991c-1.321-1.417-2.463-2.136-3.419-2.157c-0.728,0.043-1.763,0.784-3.107,2.221c-0.623,0.691-1.158,1.454-1.606,2.285
	c-0.468,0.865-0.703,1.752-0.703,2.661c0,0.951,0.192,1.881,0.578,2.788c0.344,0.93,0.771,1.771,1.278,2.528
	c0.531,0.746,1.09,1.341,1.67,1.784c0.554,0.463,1.053,0.707,1.499,0.729c0.554-0.021,1.173-0.215,1.86-0.582
	c0.654-0.38,1.295-0.882,1.922-1.51c0.611-0.634,1.122-1.364,1.526-2.186c0.406-0.789,0.61-1.637,0.61-2.542
	c0-1.311-0.204-2.462-0.61-3.459C163.764,20.55,163.264,19.693,162.67,18.991z M162.021,28.173
	c-0.283,0.336-0.607,0.506-0.978,0.506c-0.517,0-1.051-0.267-1.605-0.799c-0.611-0.49-1.163-1.116-1.658-1.878
	c-0.496-0.758-0.899-1.514-1.215-2.266c-0.348-0.762-0.521-1.419-0.521-1.974c0-0.467,0.129-0.88,0.381-1.239
	c0.24-0.358,0.535-0.538,0.88-0.538c0.579,0,1.18,0.245,1.799,0.734c0.587,0.478,1.13,1.093,1.624,1.841
	c0.494,0.764,0.888,1.519,1.186,2.269c0.303,0.784,0.455,1.485,0.455,2.105C162.369,27.444,162.254,27.856,162.021,28.173z
	 M107.092,31.83c0.551-0.021,1.169-0.215,1.857-0.582c0.654-0.38,1.297-0.882,1.92-1.51c0.612-0.634,1.122-1.364,1.528-2.186
	c0.407-0.789,0.612-1.637,0.612-2.542c0-1.311-0.205-2.462-0.612-3.459c-0.406-1.002-0.906-1.858-1.498-2.561
	c-1.321-1.417-2.46-2.136-3.417-2.157c-0.73,0.043-1.765,0.784-3.107,2.221c-0.625,0.691-1.161,1.454-1.608,2.285
	c-0.47,0.865-0.703,1.752-0.703,2.661c0,0.951,0.19,1.881,0.579,2.788c0.345,0.93,0.771,1.771,1.278,2.528
	c0.532,0.746,1.088,1.341,1.671,1.784C106.145,31.564,106.644,31.809,107.092,31.83z M104.276,21.763
	c0-0.467,0.125-0.88,0.377-1.239c0.243-0.358,0.538-0.538,0.884-0.538c0.578,0,1.179,0.245,1.797,0.734
	c0.589,0.478,1.132,1.093,1.626,1.841c0.493,0.764,0.887,1.519,1.182,2.269c0.305,0.784,0.459,1.485,0.459,2.105
	c0,0.51-0.117,0.922-0.349,1.238c-0.284,0.336-0.609,0.506-0.979,0.506c-0.515,0-1.051-0.267-1.607-0.799
	c-0.61-0.49-1.163-1.116-1.658-1.878c-0.492-0.758-0.897-1.514-1.212-2.266C104.449,22.975,104.276,22.317,104.276,21.763z
	 M198.093,22.059c0.209-0.655,0.398-1.246,0.566-1.771c0.173-0.525,0.468-1.165,0.878-1.917c0.228-0.354,0.366-0.584,0.407-0.691
	c-0.021-0.313-0.106-0.479-0.257-0.5h-13.248v7.011c0,0.226,0.104,0.339,0.309,0.339c0.91-0.042,1.666-0.19,2.262-0.44l0.371-5.62
	c0.065-0.303,0.312-0.455,0.731-0.455h1.301v13.796l3.208-0.324V18.013h1.053c0.234,0,0.46,0.032,0.678,0.098
	c0.188,0.064,0.304,0.174,0.345,0.324l1.098,3.624H198.093z M205.609,22.055v-5.221l-3.204,0.322c-0.023,0.756-0.255,1.565-0.7,2.43
	c-0.446,0.884-0.978,1.822-1.598,2.814c-0.576,0.994-1.099,2.051-1.565,3.174c-0.51,1.155-0.767,2.396-0.767,3.725
	c0,0.701,0.126,1.286,0.373,1.749c0.237,0.486,0.521,0.739,0.852,0.761c0.666,0,1.207-0.151,1.625-0.454
	c0.416-0.27,0.753-0.625,1.011-1.068c0.27-0.484,0.479-0.993,0.626-1.524c0.064-0.259,0.136-0.522,0.211-0.792
	c0.042-0.271,0.073-0.536,0.094-0.796h0.099c0.021,0.356,0.274,1.786,0.756,4.288c0.041,0.195,0.105,0.304,0.191,0.325
	c0.396-0.021,0.805-0.088,1.222-0.194c0.42-0.087,0.9-0.131,1.446-0.131h0.675C206.059,28.534,205.609,25.396,205.609,22.055z
	 M202.405,24.382c-0.023,1.019-0.23,2.065-0.625,3.148c-0.2,0.506-0.442,0.919-0.721,1.231c-0.271,0.359-0.58,0.537-0.928,0.537
	c-0.247,0-0.408-0.156-0.487-0.472c-0.068-0.28-0.102-0.579-0.102-0.892c0-0.509,0.119-1.11,0.354-1.801
	c0.204-0.681,0.466-1.36,0.793-2.028c0.683-1.462,1.234-2.489,1.648-3.084h0.067V24.382z M138.711,41.484h-3.713
	c-0.163,0-0.271,0.113-0.324,0.34c-0.057,0.227-0.084,0.812-0.084,1.756c0,1.328,0.02,2.131,0.066,2.406
	c0.043,0.276,0.157,0.411,0.345,0.411h0.616c0.199,0,0.32-0.023,0.358-0.071c0.044-0.047,0.063-0.13,0.063-0.248
	c-0.044-0.419-0.085-0.828-0.122-1.228c-0.033-0.4-0.048-0.835-0.048-1.305c0-0.503,0.048-1.074,0.151-1.715h1.594
	c-0.055,0.364-0.082,0.644-0.093,0.836c-0.005,0.191-0.011,0.499-0.011,0.913c0,1.315,0.023,2.112,0.061,2.396
	c0.04,0.281,0.159,0.421,0.352,0.421h0.611c0.205,0,0.333-0.023,0.378-0.071c0.042-0.047,0.06-0.121,0.042-0.227
	c-0.079-0.643-0.13-1.106-0.143-1.388c-0.014-0.279-0.022-0.665-0.022-1.154c0-0.36,0.005-0.599,0.016-0.713
	c0.013-0.116,0.038-0.35,0.082-0.706c0.013-0.102,0.038-0.223,0.067-0.354c0.008-0.044,0.012-0.09,0.012-0.133
	C138.966,41.542,138.879,41.484,138.711,41.484z M103.56,44.319c-0.282-0.22-0.608-0.379-0.982-0.479
	c-0.374-0.098-0.768-0.149-1.169-0.149v-0.232c0-0.235,0.007-0.494,0.032-0.771c0.02-0.278,0.056-0.506,0.091-0.688
	c0.04-0.183,0.06-0.302,0.06-0.36c0-0.038-0.009-0.068-0.026-0.099c-0.018-0.031-0.053-0.049-0.106-0.058h-0.92
	c-0.201,0-0.32,0.164-0.367,0.495c-0.041,0.33-0.063,1.198-0.063,2.607v1.399c0,0.141,0.026,0.246,0.084,0.312
	c0.058,0.067,0.153,0.1,0.278,0.1h3.327c0.182,0,0.313-0.012,0.389-0.043c0.14-0.057,0.208-0.187,0.208-0.384
	c0-0.266-0.049-0.517-0.142-0.76C104.109,44.867,103.879,44.569,103.56,44.319z M102.79,46.053h-1.382
	c0-0.023-0.008-0.187-0.015-0.491c-0.005-0.305-0.008-0.582-0.008-0.833v-0.183c0-0.049,0-0.111,0.003-0.182
	c0.003-0.069,0.003-0.136,0.005-0.196c0.563,0.067,0.958,0.298,1.187,0.687c0.14,0.23,0.21,0.519,0.21,0.862V46.053z
	 M143.536,42.972l-0.079-0.312l-0.164-0.61c-0.037-0.146-0.058-0.246-0.06-0.293c-0.006-0.047-0.006-0.113-0.006-0.193
	c-0.018-0.04-0.063-0.058-0.136-0.058h-1.077c-0.138,0-0.206,0.018-0.206,0.058c0,0.066,0.013,0.139,0.037,0.215
	c0.023,0.078,0.043,0.146,0.056,0.203c0.013,0.056,0.019,0.105,0.019,0.149c0,0.075-0.061,0.175-0.179,0.301
	c-0.27,0.292-0.418,0.458-0.456,0.503c-0.421,0.484-0.69,0.812-0.808,0.981c-0.339,0.486-0.51,0.901-0.51,1.251
	c0,0.342,0.077,0.64,0.231,0.892c0.201,0.328,0.501,0.49,0.898,0.49c0.428,0,0.787-0.18,1.084-0.542
	c0.232-0.279,0.422-0.682,0.58-1.21l0.13,0.478l0.124,0.412c0.028,0.104,0.065,0.22,0.111,0.345
	c0.009,0.068,0.019,0.146,0.037,0.236c0.021,0.087,0.057,0.13,0.104,0.13h1.077c0.141,0,0.21-0.028,0.21-0.088
	c-0.124-0.348-0.249-0.699-0.376-1.054C143.988,44.68,143.772,43.917,143.536,42.972z M142.345,44.915
	c-0.18,0.211-0.402,0.313-0.675,0.313c-0.213,0-0.371-0.074-0.471-0.229c-0.098-0.154-0.151-0.32-0.151-0.501
	c0-0.238,0.103-0.539,0.298-0.902c0.202-0.363,0.452-0.714,0.757-1.052l0.152,0.573l0.133,0.472c0.033,0.096,0.069,0.222,0.112,0.37
	c0.043,0.149,0.063,0.284,0.063,0.404C142.563,44.56,142.492,44.744,142.345,44.915z M149.707,41.874
	c0.029-0.109,0.043-0.189,0.043-0.233c0-0.088-0.046-0.141-0.144-0.156h-0.911c-0.159,0-0.268,0.096-0.313,0.28
	c-0.066,0.271-0.102,0.862-0.102,1.775l-1.709-0.032c0-0.274,0.021-0.555,0.061-0.843c0.075-0.521,0.11-0.861,0.11-1.023
	c0-0.089-0.043-0.142-0.139-0.157h-0.905c-0.159,0-0.262,0.107-0.31,0.318c-0.047,0.21-0.072,0.805-0.072,1.785
	c0,1.235,0.024,2.016,0.062,2.332c0.042,0.319,0.145,0.478,0.318,0.478h0.485c0.259,0,0.417-0.018,0.475-0.061
	c0.059-0.039,0.086-0.121,0.086-0.237c0-0.18-0.017-0.367-0.05-0.563c-0.039-0.196-0.057-0.354-0.057-0.474
	c0-0.021-0.015-0.276-0.054-0.767c-0.005-0.098-0.011-0.219-0.011-0.367l1.709,0.045c0,1.123,0.021,1.81,0.062,2.055
	c0.043,0.245,0.158,0.368,0.353,0.368h0.489c0.213,0,0.361-0.012,0.442-0.043c0.073-0.029,0.115-0.115,0.115-0.255
	c-0.046-0.385-0.089-0.759-0.125-1.12c-0.039-0.364-0.057-0.837-0.057-1.422c0-0.501,0.023-0.936,0.078-1.307
	C149.653,42.109,149.677,41.983,149.707,41.874z M157.972,45.21c-0.027-0.374-0.047-0.619-0.047-0.736
	c0-0.058,0.013-0.322,0.045-0.788c0.026-0.462,0.041-0.923,0.041-1.381l0.04-0.642c0-0.105-0.04-0.157-0.121-0.157h-2.967
	c-0.39,0-0.658,0.038-0.798,0.111c-0.194,0.104-0.288,0.319-0.288,0.645c0,0.472,0.207,0.846,0.62,1.118
	c0.299,0.192,0.759,0.353,1.373,0.479v0.055c-0.68,0.082-1.257,0.395-1.72,0.943c-0.382,0.45-0.577,0.875-0.577,1.275
	c0,0.104,0.036,0.173,0.106,0.211c0.07,0.037,0.237,0.054,0.503,0.054h0.422c0.277,0,0.45-0.039,0.525-0.12
	c0.045-0.051,0.068-0.171,0.068-0.361c0-0.514,0.125-0.916,0.372-1.213c0.252-0.295,0.608-0.496,1.077-0.6l0.023,0.781
	c0,0.711,0.018,1.139,0.049,1.288c0.033,0.151,0.144,0.225,0.33,0.225h0.555c0.182,0,0.299-0.016,0.365-0.05
	c0.061-0.031,0.093-0.079,0.093-0.136c0-0.044-0.007-0.131-0.027-0.257C158.027,45.832,158,45.581,157.972,45.21z M156.647,43.671
	c-0.368,0-0.679-0.117-0.928-0.355c-0.246-0.237-0.368-0.54-0.368-0.905c0-0.223,0.039-0.371,0.124-0.446
	c0.088-0.074,0.302-0.109,0.653-0.109h0.605C156.677,42.435,156.647,43.041,156.647,43.671z M133.78,45.91
	c-0.307-0.664-0.538-1.245-0.672-1.742c-0.166-0.581-0.295-1.414-0.39-2.495c-0.016-0.109-0.118-0.167-0.311-0.167h-0.974
	c-0.084,0-0.122,0.018-0.122,0.058c0,0.052,0.01,0.158,0.032,0.326c0.031,0.166,0.044,0.375,0.044,0.626
	c0,0.097-0.034,0.225-0.094,0.385c-0.063,0.156-0.124,0.3-0.181,0.426c-0.104,0.209-0.196,0.414-0.269,0.622
	c-0.133,0.363-0.228,0.726-0.274,1.088c-0.223-0.859-0.376-1.497-0.466-1.915s-0.151-0.766-0.18-1.042
	c-0.03-0.277-0.061-0.443-0.089-0.494c-0.03-0.051-0.115-0.079-0.256-0.079h-0.816c-0.104,0-0.172,0.011-0.195,0.028
	c-0.027,0.02-0.049,0.051-0.065,0.096c-0.011,0.043-0.02,0.08-0.02,0.11c0,0.037,0.009,0.1,0.02,0.188
	c0,0.03,0.006,0.067,0.013,0.111c0,0.229-0.086,0.511-0.265,0.844c-0.074,0.14-0.207,0.366-0.401,0.675
	c-0.23,0.365-0.423,0.716-0.576,1.056c-0.231,0.512-0.345,0.949-0.345,1.32c0,0.133,0.011,0.243,0.038,0.334
	c0.025,0.087,0.071,0.13,0.139,0.13h0.911c0.075,0,0.113-0.021,0.113-0.066c0-0.014-0.013-0.052-0.034-0.109
	c-0.023-0.058-0.046-0.122-0.068-0.19c-0.06-0.152-0.101-0.274-0.124-0.364c-0.044-0.162-0.068-0.316-0.068-0.466
	c0-0.392,0.088-0.803,0.257-1.229c0.173-0.432,0.4-0.825,0.687-1.188c0.151,0.754,0.285,1.393,0.413,1.917
	c0.095,0.401,0.208,0.803,0.332,1.209c0.082,0.244,0.163,0.396,0.244,0.455c0.032,0.021,0.104,0.032,0.223,0.032h0.808
	c0.055,0,0.082-0.032,0.091-0.1c0.005-0.065,0.005-0.118,0-0.153V45.92c0-0.363,0.068-0.796,0.214-1.307
	c0.138-0.507,0.311-0.987,0.514-1.439l0.091,0.432c0.089,0.553,0.235,1.099,0.435,1.647c0.271,0.764,0.537,1.145,0.788,1.145h0.707
	c0.112,0,0.176-0.011,0.202-0.032c0.019-0.021,0.032-0.063,0.032-0.121c0-0.06-0.01-0.115-0.025-0.166
	C133.825,46.025,133.803,45.971,133.78,45.91z M151.433,39.559c-0.092,0-0.159,0.032-0.191,0.094
	c-0.04,0.063-0.059,0.238-0.059,0.527c0,0.307,0.014,0.493,0.046,0.559c0.025,0.064,0.097,0.096,0.204,0.096h0.886
	c0.092,0,0.141-0.054,0.141-0.161V39.71c0-0.1-0.049-0.151-0.141-0.151H151.433z M152.459,41.62c0-0.089-0.049-0.142-0.144-0.157
	h-0.896c-0.154,0-0.26,0.121-0.32,0.357c-0.062,0.239-0.091,0.819-0.091,1.743c0,0.089,0.012,0.375,0.031,0.859
	c0.023,0.483,0.034,0.883,0.034,1.195c0,0.341,0.028,0.559,0.076,0.649c0.054,0.087,0.145,0.13,0.277,0.13h0.487
	c0.268,0,0.432-0.018,0.49-0.061c0.059-0.039,0.077-0.121,0.054-0.238c-0.074-0.454-0.124-0.834-0.141-1.144
	c-0.022-0.31-0.033-0.781-0.033-1.419c0-0.46,0.02-0.844,0.05-1.147C152.372,42.083,152.41,41.828,152.459,41.62z M66.376,41.161
	c-0.341,0-0.739,0.271-1.188,0.809c-0.534,0.645-0.799,1.387-0.799,2.229c0,0.281,0.014,0.588,0.044,0.91
	c0.028,0.325,0.075,0.846,0.141,1.564c0.021,0.193,0.033,0.364,0.043,0.511c0.006,0.146,0.011,0.281,0.011,0.399v1.422
	c0.021,0.064,0.101,0.098,0.237,0.098c0.209,0,0.369-0.102,0.482-0.305c0.11-0.204,0.168-0.574,0.168-1.11
	c0-0.222-0.013-0.535-0.039-0.939c-0.026-0.403-0.042-0.654-0.05-0.75l-0.045-0.357c0.135,0.259,0.334,0.476,0.598,0.648
	c0.266,0.174,0.53,0.259,0.801,0.259c0.431,0,0.784-0.196,1.064-0.59c0.278-0.392,0.42-0.901,0.42-1.528
	c0-0.817-0.239-1.587-0.711-2.31C67.129,41.48,66.736,41.161,66.376,41.161z M67.138,45.107c0,0.3-0.077,0.524-0.225,0.672
	c-0.098,0.097-0.215,0.143-0.347,0.143c-0.287,0-0.569-0.19-0.852-0.571c-0.322-0.442-0.482-0.964-0.482-1.565
	c0-0.342,0.033-0.642,0.101-0.889c0.067-0.251,0.183-0.496,0.348-0.742c0.388,0.184,0.734,0.569,1.041,1.157
	c0.276,0.529,0.416,1,0.416,1.411V45.107z M113.398,42.972l-0.076-0.312l-0.168-0.61c-0.035-0.146-0.059-0.246-0.062-0.293
	c-0.006-0.047-0.007-0.113-0.007-0.193c-0.01-0.04-0.058-0.058-0.133-0.058h-1.07c-0.143,0-0.215,0.018-0.215,0.058
	c0,0.066,0.018,0.139,0.039,0.215c0.026,0.078,0.046,0.146,0.058,0.203c0.014,0.056,0.018,0.105,0.018,0.149
	c0,0.075-0.061,0.175-0.18,0.301c-0.267,0.292-0.417,0.458-0.457,0.503c-0.418,0.484-0.686,0.812-0.807,0.981
	c-0.338,0.486-0.51,0.901-0.51,1.251c0,0.342,0.076,0.64,0.232,0.892c0.202,0.328,0.5,0.49,0.899,0.49
	c0.428,0,0.789-0.18,1.084-0.542c0.23-0.279,0.421-0.682,0.578-1.21l0.132,0.478l0.122,0.412c0.029,0.104,0.065,0.22,0.111,0.345
	c0.005,0.068,0.02,0.146,0.04,0.236c0.018,0.087,0.054,0.13,0.104,0.13h1.075c0.14,0,0.211-0.028,0.211-0.088
	c-0.127-0.348-0.25-0.699-0.376-1.054C113.847,44.68,113.635,43.917,113.398,42.972z M112.204,44.915
	c-0.175,0.211-0.399,0.313-0.67,0.313c-0.218,0-0.373-0.074-0.473-0.229c-0.101-0.154-0.149-0.32-0.149-0.501
	c0-0.238,0.099-0.539,0.296-0.902c0.205-0.363,0.451-0.714,0.752-1.052l0.157,0.573l0.134,0.472c0.027,0.096,0.064,0.222,0.11,0.37
	c0.043,0.149,0.064,0.284,0.064,0.404C112.426,44.56,112.354,44.744,112.204,44.915z M106.603,43.859l0.223-0.313
	c0.155-0.273,0.355-0.508,0.586-0.705c0.233-0.196,0.439-0.296,0.615-0.296c0.22,0,0.382,0.108,0.487,0.325h0.267l0.01-0.221
	c0-0.361,0.073-0.645,0.221-0.852c0.061-0.082,0.09-0.159,0.09-0.233c0-0.045-0.051-0.081-0.145-0.117
	c-0.097-0.032-0.205-0.05-0.321-0.05c-0.318,0-0.654,0.158-1,0.477c-0.433,0.392-0.884,1.022-1.356,1.881h-0.088
	c0-0.421,0.013-0.757,0.043-1.01c0.027-0.25,0.06-0.481,0.095-0.694c0.038-0.211,0.053-0.35,0.053-0.418
	c0-0.08-0.042-0.133-0.131-0.155c-0.015-0.008-0.052-0.008-0.112,0l-0.533,0.033l-0.282-0.021c-0.165,0-0.271,0.111-0.317,0.331
	c-0.049,0.223-0.074,0.814-0.074,1.775c0,1.33,0.02,2.13,0.056,2.399c0.037,0.27,0.147,0.402,0.331,0.402h0.497
	c0.247,0,0.401-0.028,0.462-0.088c0.029-0.028,0.036-0.098,0.022-0.209c-0.036-0.257-0.065-0.533-0.083-0.835
	c-0.018-0.296-0.025-0.676-0.025-1.141c0.371,0.118,0.676,0.343,0.919,0.679c0.249,0.334,0.404,0.727,0.482,1.182
	c0.028,0.183,0.055,0.305,0.087,0.362c0.028,0.059,0.078,0.09,0.146,0.09c0.021,0,0.076-0.007,0.169-0.021
	c0.093-0.012,0.213-0.019,0.363-0.019l0.376,0.04h0.136c0.177,0,0.263-0.046,0.263-0.136c0-0.506-0.269-1.016-0.809-1.523
	C107.891,44.364,107.315,44.058,106.603,43.859z M89.194,41.161c-0.317,0-0.695,0.293-1.133,0.88
	c-0.503,0.683-0.753,1.426-0.753,2.225c0,0.552,0.236,1.11,0.71,1.676c0.452,0.534,0.861,0.804,1.232,0.804
	c0.363,0,0.771-0.355,1.228-1.068s0.684-1.384,0.684-2.016c0-0.771-0.271-1.41-0.812-1.918
	C89.937,41.354,89.551,41.161,89.194,41.161z M90.25,45.084c-0.028,0.132-0.073,0.255-0.132,0.373
	c-0.046,0.008-0.112,0.009-0.202,0.009c-0.579,0-1.056-0.29-1.426-0.879c-0.298-0.471-0.447-0.939-0.447-1.409
	c0-0.124,0.03-0.268,0.09-0.424c0.06-0.157,0.142-0.301,0.245-0.426c0.571,0.068,1.04,0.339,1.404,0.816
	c0.341,0.449,0.513,0.962,0.513,1.541C90.295,44.817,90.28,44.95,90.25,45.084z M119.354,43.859l0.221-0.313
	c0.166-0.273,0.36-0.508,0.59-0.705c0.231-0.196,0.44-0.296,0.617-0.296c0.22,0,0.382,0.108,0.484,0.325h0.267l0.012-0.221
	c0-0.361,0.071-0.645,0.225-0.852c0.058-0.082,0.083-0.159,0.083-0.233c0-0.045-0.047-0.081-0.144-0.117
	c-0.098-0.032-0.202-0.05-0.318-0.05c-0.322,0-0.651,0.158-1,0.477c-0.435,0.392-0.886,1.022-1.357,1.881h-0.087
	c0-0.421,0.009-0.757,0.039-1.01c0.029-0.25,0.06-0.481,0.099-0.694c0.035-0.211,0.051-0.35,0.051-0.418
	c0-0.08-0.041-0.133-0.128-0.155c-0.018-0.008-0.056-0.008-0.118,0l-0.531,0.033l-0.282-0.021c-0.158,0-0.267,0.111-0.313,0.331
	c-0.051,0.223-0.075,0.814-0.075,1.775c0,1.33,0.021,2.13,0.055,2.399c0.039,0.27,0.146,0.402,0.329,0.402h0.499
	c0.249,0,0.4-0.028,0.458-0.088c0.034-0.028,0.041-0.098,0.021-0.209c-0.031-0.257-0.06-0.533-0.079-0.835
	c-0.019-0.296-0.023-0.676-0.023-1.141c0.366,0.118,0.673,0.343,0.917,0.679c0.247,0.334,0.404,0.727,0.479,1.182
	c0.032,0.183,0.058,0.305,0.09,0.362c0.026,0.059,0.077,0.09,0.143,0.09c0.023,0,0.082-0.007,0.176-0.021
	c0.093-0.012,0.212-0.019,0.358-0.019l0.378,0.04h0.133c0.178,0,0.269-0.046,0.269-0.136c0-0.506-0.272-1.016-0.81-1.523
	C120.645,44.364,120.069,44.058,119.354,43.859z M99.2,44.887c-0.052,0.08-0.107,0.161-0.168,0.241
	c-0.097,0.132-0.193,0.245-0.291,0.338c-0.407-0.149-0.769-0.478-1.084-0.976c-0.316-0.499-0.473-0.99-0.473-1.47
	c0-0.088,0.013-0.226,0.038-0.415c0.026-0.19,0.072-0.354,0.14-0.493c0.333,0.074,0.61,0.197,0.835,0.367
	c0.135,0.104,0.267,0.24,0.402,0.408c0.133,0.171,0.212,0.256,0.232,0.256c0.022,0,0.06-0.044,0.111-0.134
	c0.089-0.146,0.207-0.298,0.355-0.455c0.202-0.215,0.302-0.349,0.302-0.407c0-0.173-0.244-0.381-0.741-0.624
	c-0.493-0.241-0.81-0.362-0.96-0.362c-0.303,0-0.655,0.293-1.067,0.88c-0.428,0.624-0.644,1.233-0.644,1.828
	c0,0.574,0.221,1.197,0.653,1.867c0.439,0.673,0.824,1.009,1.157,1.009c0.215,0,0.497-0.176,0.836-0.53
	c0.341-0.354,0.624-0.777,0.856-1.271l-0.346-0.278L99.2,44.887z M93.705,41.161c-0.34,0-0.737,0.271-1.188,0.809
	c-0.533,0.645-0.798,1.387-0.798,2.229c0,0.281,0.013,0.588,0.043,0.91c0.027,0.325,0.074,0.846,0.141,1.564
	c0.021,0.193,0.034,0.364,0.045,0.511c0.005,0.146,0.009,0.281,0.009,0.399v1.422c0.021,0.064,0.101,0.098,0.238,0.098
	c0.209,0,0.37-0.102,0.481-0.305c0.111-0.204,0.167-0.574,0.167-1.11c0-0.222-0.014-0.535-0.036-0.939
	c-0.029-0.403-0.043-0.654-0.052-0.75l-0.045-0.357c0.136,0.259,0.334,0.476,0.598,0.648c0.268,0.174,0.532,0.259,0.8,0.259
	c0.43,0,0.786-0.196,1.066-0.59c0.278-0.392,0.42-0.901,0.42-1.528c0-0.817-0.237-1.587-0.714-2.31
	C94.458,41.48,94.068,41.161,93.705,41.161z M94.468,45.107c0,0.3-0.077,0.524-0.225,0.672c-0.099,0.097-0.213,0.143-0.348,0.143
	c-0.284,0-0.567-0.19-0.852-0.571c-0.323-0.442-0.481-0.964-0.481-1.565c0-0.342,0.032-0.642,0.099-0.889
	c0.069-0.251,0.185-0.496,0.35-0.742c0.388,0.184,0.735,0.569,1.042,1.157c0.276,0.529,0.415,1,0.415,1.411V45.107z M80.337,43.776
	c-0.073-0.23-0.161-0.537-0.254-0.919c-0.135-0.523-0.199-0.886-0.199-1.085c0-0.132-0.023-0.209-0.069-0.231
	c-0.044-0.022-0.132-0.035-0.267-0.035H78.6c-0.06,0-0.103,0.006-0.132,0.018c-0.03,0.011-0.057,0.034-0.079,0.071
	c-0.017,0.022-0.017,0.063,0,0.123c0.042,0.107,0.063,0.214,0.063,0.308c0,0.179-0.088,0.418-0.264,0.72
	c-0.142,0.22-0.282,0.436-0.422,0.649c-0.296,0.449-0.501,0.773-0.61,0.971c-0.362,0.643-0.543,1.197-0.543,1.668
	c0,0.163,0.021,0.265,0.062,0.305c0.039,0.042,0.13,0.06,0.272,0.06h1.068c0.133,0,0.199-0.043,0.199-0.13
	c0-0.039-0.022-0.086-0.068-0.145c-0.069-0.092-0.122-0.177-0.16-0.257c-0.074-0.147-0.127-0.277-0.148-0.389
	c-0.023-0.111-0.033-0.245-0.033-0.41c0-0.25,0.04-0.516,0.123-0.797c0.082-0.28,0.238-0.677,0.467-1.186
	c0.038-0.097,0.094-0.224,0.168-0.378c0.054-0.119,0.097-0.253,0.135-0.401l0.077,0.359l0.079,0.367
	c0.035,0.204,0.069,0.366,0.099,0.476c0,0.016,0.036,0.149,0.109,0.399l0.145,0.524c0.251,0.964,0.43,1.548,0.533,1.755
	c0.074,0.14,0.191,0.211,0.354,0.211l0.421-0.011l0.434,0.011h0.111c0.115,0,0.176-0.054,0.176-0.164
	c-0.11-0.26-0.218-0.517-0.322-0.776C80.772,45.095,80.58,44.536,80.337,43.776z M70.592,41.62c0-0.089-0.049-0.142-0.146-0.157
	h-0.896c-0.153,0-0.264,0.121-0.32,0.357c-0.058,0.239-0.088,0.819-0.088,1.743c0,0.089,0.011,0.375,0.032,0.859
	c0.021,0.483,0.033,0.883,0.033,1.195c0,0.341,0.023,0.559,0.077,0.649c0.05,0.087,0.143,0.13,0.275,0.13h0.489
	c0.266,0,0.428-0.018,0.485-0.061c0.061-0.039,0.079-0.121,0.059-0.238c-0.078-0.454-0.123-0.834-0.145-1.144
	c-0.021-0.31-0.029-0.781-0.029-1.419c0-0.46,0.016-0.844,0.051-1.147C70.503,42.083,70.543,41.828,70.592,41.62z M69.563,39.559
	c-0.094,0-0.158,0.032-0.195,0.094c-0.037,0.063-0.055,0.238-0.055,0.527c0,0.307,0.015,0.493,0.045,0.559
	c0.028,0.064,0.098,0.096,0.205,0.096h0.885c0.096,0,0.145-0.054,0.145-0.161V39.71c0-0.1-0.049-0.151-0.145-0.151H69.563z
	 M86.905,41.374c-0.061,0-0.141,0.011-0.241,0.023c-0.1,0.015-0.223,0.031-0.37,0.045c-0.279,0.042-0.573,0.063-0.876,0.063H82.98
	c-0.237,0-0.483-0.002-0.743-0.011c-0.258-0.007-0.465-0.025-0.619-0.053c-0.148-0.014-0.274-0.03-0.377-0.045
	c-0.104-0.013-0.18-0.023-0.233-0.023c-0.073,0-0.144,0.04-0.21,0.113c-0.068,0.075-0.099,0.162-0.099,0.268
	c0,0.095,0.021,0.189,0.066,0.277c0.021,0.043,0.064,0.108,0.123,0.199c0.173,0.252,0.297,0.45,0.371,0.603
	c0.076,0.153,0.16,0.369,0.249,0.649l0.555-0.1c-0.021-0.06-0.053-0.158-0.103-0.298c-0.048-0.136-0.072-0.237-0.072-0.306
	c0-0.401,0.168-0.678,0.505-0.825c0.188-0.082,0.439-0.124,0.755-0.124h0.191l-0.044,1.089v1.667l-0.027,0.655
	c0,0.524,0.015,0.858,0.043,0.995c0.031,0.136,0.119,0.205,0.269,0.205h0.62c0.199,0,0.324-0.026,0.372-0.073
	s0.063-0.123,0.05-0.227c-0.023-0.178-0.042-0.514-0.053-1.005c-0.015-0.492-0.019-1.021-0.019-1.584V42.83l0.021-0.999h0.201
	c0.319,0,0.575,0.045,0.771,0.134c0.319,0.148,0.479,0.421,0.479,0.815c0,0.09-0.013,0.176-0.039,0.258
	c-0.028,0.08-0.072,0.196-0.134,0.346l0.57,0.1c0.08-0.236,0.166-0.45,0.263-0.649c0.096-0.194,0.212-0.396,0.353-0.603
	c0.023-0.045,0.063-0.117,0.121-0.212c0.037-0.081,0.057-0.17,0.057-0.265c0-0.105-0.035-0.192-0.1-0.268
	C87.047,41.414,86.976,41.374,86.905,41.374z M73.893,41.722c0.105,0,0.206,0.046,0.31,0.135c0.037,0.039,0.123,0.134,0.257,0.286
	c0.132,0.152,0.273,0.281,0.424,0.381c0.153,0.104,0.309,0.151,0.473,0.151c0.148,0,0.306-0.033,0.472-0.098
	c0.165-0.067,0.334-0.161,0.503-0.277l-0.265-0.322c-0.074,0.052-0.152,0.077-0.234,0.077c-0.102,0-0.231-0.06-0.388-0.179
	c-0.244-0.146-0.447-0.253-0.608-0.322c-0.326-0.133-0.652-0.2-0.977-0.2c-0.723,0-1.3,0.311-1.728,0.926
	c-0.348,0.5-0.521,1.037-0.521,1.607v0.356c0,0.926,0.324,1.608,0.975,2.047c0.459,0.302,1.005,0.455,1.642,0.455
	c0.407,0,0.767-0.075,1.087-0.223c0.315-0.153,0.583-0.343,0.797-0.577l-0.189-0.218c-0.281,0.197-0.526,0.336-0.741,0.409
	c-0.216,0.074-0.42,0.109-0.621,0.109c-0.465,0-0.827-0.179-1.079-0.54c-0.257-0.359-0.384-0.805-0.384-1.336
	c0.095-0.081,0.181-0.144,0.255-0.187c0.147-0.084,0.297-0.123,0.453-0.123c0.142,0,0.292,0.043,0.456,0.13
	c0.109,0.058,0.221,0.124,0.332,0.196c0.109,0.072,0.189,0.117,0.238,0.139c0.048,0.021,0.131,0.032,0.25,0.032
	c0.089,0,0.167-0.014,0.239-0.042c0.067-0.028,0.163-0.087,0.285-0.174c0.124-0.087,0.224-0.164,0.303-0.233
	c0.075-0.068,0.173-0.172,0.291-0.31l-0.211-0.271c-0.066,0.053-0.131,0.092-0.199,0.121c-0.067,0.03-0.133,0.043-0.199,0.043
	c-0.061,0-0.155-0.039-0.288-0.124c-0.132-0.084-0.27-0.151-0.41-0.205c-0.142-0.055-0.278-0.081-0.41-0.081
	c-0.177,0-0.425,0.075-0.744,0.224c-0.272,0.129-0.488,0.255-0.651,0.382c0-0.556,0.045-1.012,0.133-1.376
	C73.343,41.986,73.567,41.722,73.893,41.722z M124.391,41.161c-0.32,0-0.699,0.293-1.135,0.88c-0.503,0.683-0.754,1.426-0.754,2.225
	c0,0.552,0.234,1.11,0.709,1.676c0.451,0.534,0.863,0.804,1.233,0.804c0.364,0,0.772-0.355,1.229-1.068
	c0.452-0.713,0.682-1.384,0.682-2.016c0-0.771-0.271-1.41-0.81-1.918C125.129,41.354,124.746,41.161,124.391,41.161z
	 M125.443,45.084c-0.028,0.132-0.074,0.255-0.135,0.373c-0.044,0.008-0.111,0.009-0.198,0.009c-0.579,0-1.058-0.29-1.427-0.879
	c-0.297-0.471-0.447-0.939-0.447-1.409c0-0.124,0.032-0.268,0.092-0.424c0.059-0.157,0.138-0.301,0.245-0.426
	c0.57,0.068,1.04,0.339,1.403,0.816c0.339,0.449,0.514,0.962,0.514,1.541C125.49,44.817,125.473,44.95,125.443,45.084z"/>
</svg>
